# xmcd
#
# Track frame offsets:
#	150
#	15389
#	31400
#	45142
#	62797
#	78475
#	94490
#	111026
#	126048
#	150920
#
# Disc length: 2217 seconds
#
# Revision: 1
# Processed by: cddbd v1.4PL0 Copyright (c) Steve Scherf et al.
# Submitted via: EasyCDDAExtractor 6.0.0.1
#
DISCID=6c08a70a
DTITLE=The Traveling Wilburys - Volume 1
DYEAR=1900
DGENRE=Blues
TTITLE0=Handle With Care
TTITLE1=Dirty World
TTITLE2=Rattled
TTITLE3=Last Night
TTITLE4=Not Alone Anymore
TTITLE5=Congratulations
TTITLE6=Heading For The Light
TTITLE7=Margarita
TTITLE8=Tweeter And The Monkey Man
TTITLE9=End Of The Line
EXTD=
EXTT0=
EXTT1=
EXTT2=
EXTT3=
EXTT4=
EXTT5=
EXTT6=
EXTT7=
EXTT8=
EXTT9=
PLAYORDER=
